<svg width="108" height="108" viewBox="0 0 108 108" fill="none" xmlns="http://www.w3.org/2000/svg">
<g clip-path="url(#clip0_193_5089)" filter="url(#filter0_dd_193_5089)">
<circle cx="54" cy="50" r="50" fill="#FFBC57"/>
<path fill-rule="evenodd" clip-rule="evenodd" d="M66.1246 43.6253C64.5387 44.0579 63.3746 45.5073 63.3746 47.2313V56.8398L61.2942 54.9905C60.8113 54.5613 60.4041 54.3333 59.9763 54.1983C59.5288 54.0569 58.9855 53.9938 58.1871 53.9938C54.7451 53.9938 51.6934 56.5016 51.6934 59.7C51.6934 60.3904 51.1337 60.95 50.4434 60.95C49.753 60.95 49.1934 60.3904 49.1934 59.7C49.1934 54.761 53.7541 51.4938 58.1871 51.4938C59.0949 51.4938 59.9298 51.5619 60.7291 51.8143C60.778 51.8297 60.8265 51.8458 60.8746 51.8624V47.2313C60.8746 43.7847 63.6655 40.9938 67.1121 40.9938H68.6246V59.3063C68.6246 62.2951 67.7722 65.1499 66.3346 67.45C65.9687 68.0354 65.1975 68.2134 64.6121 67.8475C64.0267 67.4816 63.8487 66.7104 64.2146 66.125C65.402 64.2252 66.1246 61.83 66.1246 59.3063V43.6253Z" fill="white"/>
<path fill-rule="evenodd" clip-rule="evenodd" d="M40.9941 51.625C41.6845 51.625 42.2441 52.1846 42.2441 52.875V61.4062C42.2441 63.0677 42.6002 64.5621 43.2728 65.7952C43.6033 66.4012 43.38 67.1605 42.774 67.4911C42.1679 67.8217 41.4086 67.5984 41.078 66.9923C40.1756 65.3379 39.7441 63.4198 39.7441 61.4062V52.875C39.7441 52.1846 40.3038 51.625 40.9941 51.625Z" fill="white"/>
<path fill-rule="evenodd" clip-rule="evenodd" d="M39.875 66.0625H68.625V71.25C68.625 71.9404 68.0654 72.5 67.375 72.5C66.6846 72.5 66.125 71.9404 66.125 71.25V68.5625H42.375V71.25C42.375 71.9404 41.8154 72.5 41.125 72.5C40.4346 72.5 39.875 71.9404 39.875 71.25V66.0625Z" fill="white"/>
<path fill-rule="evenodd" clip-rule="evenodd" d="M32 29.25C32 28.5596 32.5596 28 33.25 28H75.25C75.9404 28 76.5 28.5596 76.5 29.25V52.875C76.5 53.5654 75.9404 54.125 75.25 54.125H67.375C66.6846 54.125 66.125 53.5654 66.125 52.875C66.125 52.1846 66.6846 51.625 67.375 51.625H74V30.5H34.5V51.625H62.125C62.8154 51.625 63.375 52.1846 63.375 52.875C63.375 53.5654 62.8154 54.125 62.125 54.125H33.25C32.5596 54.125 32 53.5654 32 52.875V29.25Z" fill="white"/>
<path fill-rule="evenodd" clip-rule="evenodd" d="M53.5937 35.75C50.2973 35.75 47.625 38.4223 47.625 41.7188C47.625 45.0152 50.2973 47.6875 53.5937 47.6875C56.8902 47.6875 59.5625 45.0152 59.5625 41.7188C59.5625 38.4223 56.8902 35.75 53.5937 35.75ZM45.125 41.7188C45.125 37.0416 48.9166 33.25 53.5937 33.25C58.2709 33.25 62.0625 37.0416 62.0625 41.7188C62.0625 46.3959 58.2709 50.1875 53.5937 50.1875C48.9166 50.1875 45.125 46.3959 45.125 41.7188Z" fill="white"/>
<path fill-rule="evenodd" clip-rule="evenodd" d="M68.1621 30.4938C68.8525 30.4938 69.4121 31.0534 69.4121 31.7438C69.4121 33.4159 70.69 34.6938 72.3621 34.6938C73.0525 34.6938 73.6121 35.2534 73.6121 35.9438C73.6121 36.6341 73.0525 37.1938 72.3621 37.1938C69.3093 37.1938 66.9121 34.7966 66.9121 31.7438C66.9121 31.0534 67.4718 30.4938 68.1621 30.4938Z" fill="white"/>
<path fill-rule="evenodd" clip-rule="evenodd" d="M34.625 45.9188C34.625 45.2284 35.1846 44.6688 35.875 44.6688C38.8772 44.6688 41.4563 47.0163 41.4563 50.1188C41.4563 50.8091 40.8966 51.3688 40.2063 51.3688C39.5159 51.3688 38.9563 50.8091 38.9563 50.1188C38.9563 48.4962 37.5978 47.1688 35.875 47.1688C35.1846 47.1688 34.625 46.6091 34.625 45.9188Z" fill="white"/>
<path fill-rule="evenodd" clip-rule="evenodd" d="M40.075 30.625C40.7654 30.625 41.325 31.1846 41.325 31.875C41.325 34.8473 38.7448 37.1938 35.875 37.1938C35.1846 37.1938 34.625 36.6341 34.625 35.9438C34.625 35.2534 35.1846 34.6938 35.875 34.6938C37.4677 34.6938 38.825 33.3652 38.825 31.875C38.825 31.1846 39.3846 30.625 40.075 30.625Z" fill="white"/>
<path fill-rule="evenodd" clip-rule="evenodd" d="M66.7812 50.1188C66.7812 47.0163 69.3603 44.6688 72.3625 44.6688C73.0529 44.6688 73.6125 45.2284 73.6125 45.9188C73.6125 46.6091 73.0529 47.1688 72.3625 47.1688C70.6397 47.1688 69.2812 48.4962 69.2812 50.1188C69.2812 50.8091 68.7216 51.3688 68.0312 51.3688C67.3409 51.3688 66.7812 50.8091 66.7812 50.1188Z" fill="white"/>
</g>
<defs>
<filter id="filter0_dd_193_5089" x="0" y="0" width="108" height="108" filterUnits="userSpaceOnUse" color-interpolation-filters="sRGB">
<feFlood flood-opacity="0" result="BackgroundImageFix"/>
<feColorMatrix in="SourceAlpha" type="matrix" values="0 0 0 0 0 0 0 0 0 0 0 0 0 0 0 0 0 0 127 0" result="hardAlpha"/>
<feOffset dy="4"/>
<feGaussianBlur stdDeviation="2"/>
<feComposite in2="hardAlpha" operator="out"/>
<feColorMatrix type="matrix" values="0 0 0 0 0 0 0 0 0 0 0 0 0 0 0 0 0 0 0.25 0"/>
<feBlend mode="normal" in2="BackgroundImageFix" result="effect1_dropShadow_193_5089"/>
<feColorMatrix in="SourceAlpha" type="matrix" values="0 0 0 0 0 0 0 0 0 0 0 0 0 0 0 0 0 0 127 0" result="hardAlpha"/>
<feOffset dy="4"/>
<feGaussianBlur stdDeviation="2"/>
<feComposite in2="hardAlpha" operator="out"/>
<feColorMatrix type="matrix" values="0 0 0 0 0 0 0 0 0 0 0 0 0 0 0 0 0 0 0.25 0"/>
<feBlend mode="normal" in2="effect1_dropShadow_193_5089" result="effect2_dropShadow_193_5089"/>
<feBlend mode="normal" in="SourceGraphic" in2="effect2_dropShadow_193_5089" result="shape"/>
</filter>
<clipPath id="clip0_193_5089">
<rect width="100" height="100" fill="white" transform="translate(4)"/>
</clipPath>
</defs>
</svg>
